HIERARCHY
ROOT HipCenter
{
    OFFSET 0.0 0.0 -0.0
    CHANNELS 6 Xposition Yposition Zposition Zrotation Xrotation Yrotation
    JOINT Spine
    {
        OFFSET 0.0 11.545520782470703 0.0
        CHANNELS 3 Zrotation Xrotation Yrotation
        JOINT ShoulderCenter
        {
            OFFSET 0.0 32.78681945800781 0.0
            CHANNELS 3 Zrotation Xrotation Yrotation
            JOINT LeftShoulder
            {
                OFFSET 19.048067092895508 0.0 0.0
                CHANNELS 3 Zrotation Xrotation Yrotation
                JOINT LeftElbow
                {
                    OFFSET 28.856948852539062 0.0 0.0
                    CHANNELS 3 Zrotation Xrotation Yrotation
                    JOINT LeftWrist
                    {
                        OFFSET 29.32770538330078 0.0 0.0
                        CHANNELS 3 Zrotation Xrotation Yrotation
                        JOINT LeftHand
                        {
                            OFFSET 3.777956008911133 0.0 0.0
                            CHANNELS 3 Zrotation Xrotation Yrotation
                            End Site
                            {
                                OFFSET 1.5111823081970215 0.0 0.0
                            }
                        }
                    }
                }
            }
            JOINT RightShoulder
            {
                OFFSET -19.048067092895508 0.0 0.0
                CHANNELS 3 Zrotation Xrotation Yrotation
                JOINT RightElbow
                {
                    OFFSET -28.856948852539062 0.0 0.0
                    CHANNELS 3 Zrotation Xrotation Yrotation
                    JOINT RightWrist
                    {
                        OFFSET -29.32770538330078 0.0 0.0
                        CHANNELS 3 Zrotation Xrotation Yrotation
                        JOINT RightHand
                        {
                            OFFSET -3.777956008911133 0.0 0.0
                            CHANNELS 3 Zrotation Xrotation Yrotation
                            End Site
                            {
                                OFFSET -1.5111823081970215 0.0 0.0
                            }
                        }
                    }
                }
            }
            End Site
            {
                OFFSET 0.0 13.114727973937988 0.0
            }
        }
    }
    JOINT LeftHip
    {
        OFFSET 13.483626365661621 0.0 0.0
        CHANNELS 3 Zrotation Xrotation Yrotation
        JOINT LeftKnee
        {
            OFFSET 0.0 -41.18320846557617 0.0
            CHANNELS 3 Zrotation Xrotation Yrotation
            JOINT LeftAnkle
            {
                OFFSET 0.0 -42.33255386352539 0.0
                CHANNELS 3 Zrotation Xrotation Yrotation
                JOINT LeftFoot
                {
                    OFFSET 0.0 -13.484530448913574 0.0
                    CHANNELS 3 Zrotation Xrotation Yrotation
                    End Site
                    {
                        OFFSET 0.0 0.0 5.39381217956543
                    }
                }
            }
        }
    }
    JOINT RightHip
    {
        OFFSET -13.483626365661621 0.0 0.0
        CHANNELS 3 Zrotation Xrotation Yrotation
        JOINT RightKnee
        {
            OFFSET 0.0 -41.18320846557617 0.0
            CHANNELS 3 Zrotation Xrotation Yrotation
            JOINT RightAnkle
            {
                OFFSET 0.0 -42.33255386352539 0.0
                CHANNELS 3 Zrotation Xrotation Yrotation
                JOINT RightFoot
                {
                    OFFSET 0.0 -13.484530448913574 0.0
                    CHANNELS 3 Zrotation Xrotation Yrotation
                    End Site
                    {
                        OFFSET 0.0 0.0 5.39381217956543
                    }
                }
            }
        }
    }
}
MOTION
Frames: 6
Frame Time: 0.03333333333333333
-20.399999618530273 55.900001525878906 -45.79999923706055 -0.5025839378533278 -8.972307250270115 107.6735077413331 3.566519039029999 15.908793706121367 -0.9769625832385609 -5.244462406052437e-07 -1.4845931976090401e-06 3.8404484344377092 111.90594789275065 33.41522097770662 177.8442962589907 4.721274440758853e-06 3.2262253653491543e-06 25.885968303410607 -8.357811569858893e-05 -88.54250488868486 57.95473716185575 -6.3611093629270335e-15 6.3611093629270335e-15 -3.1805546814635164e-15 -100.30226745934002 21.18316616298211 162.78138528229562 -2.2113423136999783e-06 1.7750984602945488e-06 -12.298658778983595 2.4618087653328555e-05 -85.21408740797675 -66.7023430025465 0.0 0.0 -6.3611093629270335e-15 11.779100476926262 -46.610975320188764 24.856176464399454 17.122519183495555 32.85283603158212 -71.34961814781295 67.62181311213733 -45.43502363565455 132.72502258093937 -2.3854160110976376e-15 3.1805546814635168e-15 3.1805546814635168e-15 4.781176843771249 -29.099451283921482 14.407839097918375 9.678717649697372 26.448048313738855 21.578969773851117 -75.84240141136357 -29.932874111183576 -129.44470564099802 -6.3611093629270335e-15 3.1805546814635168e-15 3.1805546814635168e-15
-20.700000762939453 55.900001525878906 -45.400001525878906 -1.5074422436265287 -9.459101319448983 107.12402510324537 2.8740192929656563 14.860188329090215 -0.787533857169135 -2.830638198899658e-06 -2.3153619820912007e-06 6.13507283450676 114.63637083085415 27.07739131327399 178.25308751605877 -4.4279882894159227e-07 8.61385846307304e-06 26.17292524239598 -179.99996590650215 -85.65105918329782 -122.06241515463653 -6.3611093629270335e-15 6.3611093629270335e-15 3.531125038440127e-31 -100.55578371129411 21.039132296114698 163.95653933149308 -1.614014926763956e-06 1.136969236722476e-05 -12.866366734855106 0.00023064657005383024 -89.33327463206454 -67.43944069561724 -3.180554681463516e-15 -6.361109362927033e-15 6.361109362927033e-15 11.219678446637047 -49.47940453978674 29.13018381689943 17.271561383998073 30.322579401893314 -67.29014117837363 62.12175008920222 -55.27713780936877 124.80922391801126 1.5902773407317584e-15 4.4139062980501586e-32 3.1805546814635168e-15 5.237794668455703 -26.387982108752364 17.768076406464523 11.009920222142142 25.696185336393796 19.564211135002523 -77.8448307291131 -26.516554307361897 -133.10682528021778 8.827812596100317e-32 3.1805546814635168e-15 -3.1805546814635168e-15
-21.0 56.0 -45.10000228881836 -2.511363099761465 -9.941240716184504 107.35522822656894 3.4430398104188016 14.237763987368018 -1.058953188069356 -1.6114758659901188e-06 -3.0074220556357113e-07 6.725568728662476 110.74742310886536 33.25139334058226 -178.97059828905617 3.438982339871877e-06 -2.653724789738806e-07 24.822466517926134 -2.7562592597361164e-06 -84.26449946088863 57.09874311425025 0.0 0.0 -3.1805546814635164e-15 -102.12132411307672 19.602248343240092 165.34445500512206 1.923281258320633e-06 9.06143725949169e-06 -14.111650369446549 -179.99987414605621 -87.9854916791622 114.28166814745133 0.0 0.0 0.0 10.885546816045482 -51.611548442415774 31.77781072756794 15.626200601054574 28.397721226687946 -61.11965639409771 46.919221864735896 -62.92571844290791 106.99782064172369 1.5902773407317582e-15 -3.1805546814635164e-15 4.4139062980501586e-32 5.229065339617402 -23.51038683852238 21.57111059535701 13.017582286654385 24.573023617039382 16.690206322292152 -76.57770945852477 -22.856913690863 -131.08465263209237 6.3611093629270335e-15 1.7655625192200634e-31 3.1805546814635168e-15
-21.19999885559082 56.19999694824219 -44.70000076293945 -3.0127797338308024 -9.937147651315408 108.77836445693943 2.728597742095422 14.396457017739065 -1.0581876703087498 9.708752830382606e-07 1.0960614060272625e-06 6.7680494417112955 115.0020247997746 24.878656782027413 179.35171105985378 1.3933592339044325e-06 2.9769507234349846e-06 27.189233229950485 -179.9999831761943 -85.40130432898049 -122.50866209678043 3.180554681463516e-15 8.827812596100317e-32 3.180554681463516e-15 -100.55847390899065 22.778858764251872 164.98468176809828 -5.849639939418029e-07 -3.3186052654903916e-06 -14.088561842167195 -179.99758953173637 -89.89698502066787 114.68054054429024 -3.1805546814635168e-15 0.0 0.0 8.929725929816714 -52.33272895066917 32.38126794250822 13.313510264185453 26.758460763020484 -53.782608986827114 23.408773161612775 -67.91316311193172 80.73458552729414 0.0 0.0 0.0 4.853002561136097 -20.903397561136625 23.14799376114725 14.758567943793407 24.85536886607461 15.175153787445117 -76.95856636867686 -19.439482026480118 -131.54028574024863 6.3611093629270335e-15 -3.1805546814635168e-15 3.1805546814635168e-15
-21.5 56.69999694824219 -44.29999923706055 -3.5137446879707896 -9.444861666770862 108.64216802290858 0.9515207460997235 14.63371695427833 -0.8770610305940904 -5.505458923929675e-08 -4.96202343986931e-07 8.91280940204853 116.00331776163999 22.059158421366664 -179.51121405757732 -1.7304065081467483e-06 4.870034958968911e-06 27.558035062039597 -179.99999244002296 -84.13009834684938 -122.64051986146127 3.1805546814635168e-15 6.3611093629270335e-15 -1.7655625192200634e-31 -97.69402707794795 28.579054605354308 164.4272363331435 2.236080426876685e-06 6.695844612120106e-07 -14.178022891386464 4.176671785715525e-05 -87.9018402138933 -65.31887949548059 0.0 -6.3611093629270335e-15 0.0 7.769689362127446 -51.81854639664206 32.470328575348084 13.027345499472181 25.22098679007742 -52.00739222347237 16.486674209295938 -66.04479978731432 74.33016387551433 8.74652537402467e-15 3.1805546814635164e-15 -2.427648463927587e-31 4.871010154009302 -18.289248320237768 24.71740339541574 15.579211359681167 25.523839707452048 13.95324469131628 -75.17733485753766 -18.721537349698295 -123.44830776670526 6.3611093629270335e-15 -6.3611093629270335e-15 -1.590277340731758e-15
-21.799999237060547 57.0 -43.79999923706055 -4.553755315085226 -10.00585706917463 109.1243479184815 0.5477345623318203 14.71308026375475 -1.2522438687020372 2.4184433807181897e-06 -9.564125806696695e-07 10.196265876774907 115.3901506654492 22.527306626674164 -177.6496477301988 2.1228635114305836e-06 5.568375671209616e-06 27.691196673995726 179.9999901606789 -85.37246118369255 -122.85125255053387 -3.1805546814635168e-15 0.0 0.0 -98.9382088279188 25.533048786692444 164.8814266533341 1.8688009783785667e-07 -1.9660692328698354e-06 -14.641483973118895 -9.381233064119567e-05 -89.116267747194 -64.93567685320151 3.1805546814635168e-15 -6.3611093629270335e-15 1.7655625192200634e-31 7.644360351537741 -51.54959659018967 33.5058897112209 12.40758573995391 24.75795641349122 -52.51429666100855 14.250298895549944 -67.78298271282527 72.88153537334789 7.951386703658792e-15 4.413906298050159e-31 6.3611093629270335e-15 5.257327265109959 -17.260452827919014 26.246871526869757 17.73988893881098 26.394457275707225 11.968230725342215 -72.47468498961685 -18.544662914243805 -105.82759355555505 6.3611093629270335e-15 0.0 0.0
